<?xml version="1.0" encoding="UTF-8"?>
<svg id="Upload_Cloud_Icon" xmlns="http://www.w3.org/2000/svg" viewBox="0 0 783 768">
  <defs>
    <style>
      .cls-1, .cls-2 {
        fill: #fff;
      }

      .cls-3, .cls-4 {
        fill: #666;
      }

      .cls-2 {
        stroke: #000;
        stroke-width: 1.64px;
      }

      .cls-2, .cls-5, .cls-4 {
        stroke-miterlimit: 10;
      }

      .cls-5 {
        fill: gray;
        stroke: gray;
        stroke-width: 29.85px;
      }

      .cls-4 {
        stroke: #fff;
        stroke-width: 6.05px;
      }
    </style>
  </defs>
  <g>
    <path class="cls-1" d="m196.8,228.48c36.02-101.85,130.86-176.87,245.42-182.18,150.97-7,279.02,109.72,286.02,260.69,7,150.97-109.72,279.02-260.69,286.02-75.48,3.5-145.24-23.93-197-71.11"/>
    <path class="cls-3" d="m163.12,216.56C202.42,92.74,328.17,11.98,456.87,26.54c112.06,11.97,213.46,90.34,255.03,194.65,6.17,15.1,11.18,31.35,14.76,47.28,1.03,5.07,2.49,11.16,3.19,16.29.51,3.24,1.37,7.75,1.68,10.96,0,0,1.31,11.04,1.31,11.04.16,2.18.86,11.95,1,13.89.14,4.02.24,9.91.36,13.96-.1,20.48-2.15,41.42-6.7,61.42-19.86,89.19-83.91,166.48-167.29,204.16-75.31,34.41-165.63,35.5-241.12.87-12.18-5.79-24.04-12.47-35.13-20.16-13.63-9.5-26.42-20.23-37.47-32.57,0,0,48.14-52.81,48.14-52.81,18.95,13.09,37.78,25.4,58.2,35.78,3.57,1.59,7.03,3.46,10.56,5.11,7.17,3.14,14.37,6.38,21.7,9.1,13.26,4.84,27.28,8.8,41.15,11.3,8.24,1.69,17.82,2.69,26.16,3.5,1.28.17,5.8.34,7.23.42,12.69.73,26.2.43,38.87-.9,5.33-.39,11.73-1.53,17.01-2.23,1.08-.22,10.67-2.07,12.08-2.35,1.98-.54,10.23-2.47,12-2.97,1.36-.43,5.66-1.69,7.12-2.14,95.16-28.84,162.1-112.69,174.7-210.84,12.47-91.34-27.63-183.22-104.13-235.1-43.82-29.78-97.86-43.41-150.43-39.53-53.61,3.79-103.98,23.22-146.17,55.46-40.75,31-70.96,73.23-90.18,120.29,0,0-67.37-23.83-67.37-23.83h0Z"/>
  </g>
  <path class="cls-2" d="m475.3,61.26c25.77,7.68,87.36,29.86,138.45,89.9,40.98,48.17,55.94,98.08,61.81,124.16"/>
  <g>
    <path d="m533.72,665.21c-2.95,0-5.85-.55-8.63-1.63l-278.09-108.08c-12.25-4.76-18.34-18.6-13.58-30.85L394.37,110.51c3.59-9.24,12.31-15.21,22.22-15.21,2.95,0,5.85.55,8.63,1.63l278.09,108.08c12.25,4.76,18.34,18.6,13.58,30.85l-160.95,414.15c-3.59,9.24-12.31,15.21-22.22,15.21Z"/>
    <path d="m416.59,97.76h0c2.64,0,5.25.49,7.74,1.46l278.09,108.08c10.99,4.27,16.45,16.68,12.18,27.67l-160.95,414.15c-3.22,8.29-11.04,13.64-19.93,13.64-2.64,0-5.25-.49-7.74-1.46l-278.09-108.08c-10.99-4.27-16.45-16.68-12.18-27.67L396.66,111.4c3.22-8.29,11.04-13.64,19.93-13.64m0-4.91c-10.53,0-20.47,6.37-24.51,16.77l-160.95,414.15c-5.26,13.53,1.45,28.77,14.98,34.03l278.09,108.08c3.13,1.22,6.35,1.79,9.52,1.79,10.53,0,20.47-6.37,24.51-16.77l160.95-414.15c5.26-13.53-1.45-28.77-14.98-34.03l-278.09-108.08c-3.13-1.22-6.35-1.79-9.52-1.79h0Z"/>
  </g>
  <g>
    <rect x="235.21" y="171.38" width="358.06" height="481.28" rx="20.4" ry="20.4"/>
    <path class="cls-1" d="m572.87,173.84c9.9,0,17.95,8.05,17.95,17.95v440.47c0,9.9-8.05,17.95-17.95,17.95H255.61c-9.9,0-17.95-8.05-17.95-17.95V191.78c0-9.9,8.05-17.95,17.95-17.95h317.26m0-4.91H255.61c-12.62,0-22.86,10.23-22.86,22.86v440.47c0,12.62,10.23,22.86,22.86,22.86h317.26c12.62,0,22.86-10.23,22.86-22.86V191.78c0-12.62-10.23-22.86-22.86-22.86h0Z"/>
  </g>
  <path class="cls-5" d="m567.81,556.08c0,17.82-6.5,33.96-17.04,45.64-10.52,11.69-25.06,18.91-41.12,18.91H107.88c-32.12,0-58.15-28.9-58.15-64.55,0-17.82,6.5-33.96,17.04-45.64,9.65-10.72,22.68-17.68,37.15-18.75v-.16c0-14.02,9.7-26.92,25.98-37.15,4.19-50.8,73.8-91.22,159.05-91.22,61.01,0,114,20.7,140.74,51.1,54.07,13.31,93.29,44.04,98.53,80.63,23.02,8.6,39.6,32.74,39.6,61.19Z"/>
  <g>
    <path class="cls-3" d="m128.5,348.55c-3.17,0-6.27-1.34-8.49-3.67-2.2-2.31-3.32-5.36-3.16-8.58l7.73-155.71c.35-6.95,6.21-11.1,11.68-11.1,2.21,0,4.38.65,6.29,1.88l130.98,84.55c3.54,2.29,5.53,6.16,5.32,10.37s-2.57,7.87-6.32,9.79l-138.71,71.16c-1.69.87-3.48,1.3-5.32,1.3h0Z"/>
    <path class="cls-3" d="m136.26,170.65c1.99,0,3.94.59,5.66,1.7l65.03,41.97,65.96,42.57c3.19,2.06,4.98,5.55,4.79,9.34-.19,3.79-2.32,7.09-5.7,8.82l-138.71,71.16c-1.52.78-3.13,1.18-4.79,1.18-2.86,0-5.65-1.21-7.65-3.31-1.98-2.08-2.99-4.82-2.84-7.73l.67-13.46,7.06-142.25c.31-6.26,5.59-10,10.52-10m0-2.31c-6.45,0-12.47,4.96-12.83,12.2-2.58,51.9-5.15,103.8-7.73,155.71-.38,7.7,5.87,13.47,12.8,13.47,1.94,0,3.93-.45,5.84-1.43l138.71-71.16c8.78-4.5,9.39-16.82,1.1-22.17l-65.96-42.57-65.03-41.97c-2.2-1.42-4.59-2.07-6.92-2.07h0Z"/>
  </g>
  <path class="cls-4" d="m196.74,685.01c0,14.91,5.48,28.4,14.35,38.17,8.86,9.78,21.1,15.82,34.63,15.82h338.36c27.05,0,48.97-24.17,48.97-53.99,0-14.91-5.48-28.4-14.35-38.17-8.13-8.97-19.1-14.79-31.29-15.68v-.13c0-11.73-8.17-22.52-21.88-31.07-3.53-42.49-62.15-76.29-133.94-76.29-51.38,0-96.01,17.31-118.53,42.74-45.53,11.13-78.57,36.83-82.98,67.43-19.39,7.19-33.35,27.39-33.35,51.18Z"/>
</svg>