<?xml version="1.0" encoding="UTF-8"?>
<svg id="Layer_1" data-name="Layer 1" xmlns="http://www.w3.org/2000/svg" viewBox="0 0 1366 768">
  <defs>
    <style>
      .cls-1, .cls-2, .cls-3, .cls-4 {
        stroke-miterlimit: 10;
      }

      .cls-1, .cls-2, .cls-4 {
        stroke: #fff;
      }

      .cls-2 {
        stroke-width: .52px;
      }

      .cls-2, .cls-3 {
        fill: #fff;
      }

      .cls-3 {
        stroke: #000;
      }

      .cls-4 {
        stroke-width: .98px;
      }
    </style>
  </defs>
  <line class="cls-3" x1="64.5" y1="660" x2="64.5" y2="659.5"/>
  <line class="cls-3" x1="64.5" y1="660" x2="64.5" y2="659.5"/>
  <g>
    <circle class="cls-4" cx="675" cy="309" r="171.5"/>
    <path class="cls-1" d="m662.56,297.86c0,20.34-7.22,38.99-19.23,53.54-15.43,18.68-38.78,30.59-64.9,30.59s-49.47-11.91-64.9-30.59c-12.02-14.55-19.23-33.2-19.23-53.54,0-46.46,37.67-84.14,84.14-84.14s84.14,37.67,84.14,84.14Z"/>
    <path class="cls-2" d="m862.09,298.2c0,19.89-6.42,38.28-17.29,53.21h-7.93c12.02-14.55,19.23-33.2,19.23-53.54,0-46.46-37.67-84.14-84.14-84.14s-84.14,37.67-84.14,84.14c0,20.34,7.22,38.99,19.23,53.54h-8.59c-10.87-14.93-17.29-33.32-17.29-53.21,0-.22,0-.45,0-.67h0c-.82-.57-2.95-1.9-5.99-2-3.43-.11-5.86,1.44-6.65,2h0c0,.22,0,.45,0,.67,0,19.89-6.42,38.28-17.29,53.21h-7.93c12.02-14.55,19.23-33.2,19.23-53.54,0-46.46-37.67-84.14-84.14-84.14s-84.14,37.67-84.14,84.14c0,20.34,7.22,38.99,19.23,53.54h-8.59c-10.87-14.93-17.29-33.32-17.29-53.21,0-49.96,40.5-90.45,90.45-90.45s88.29,38.36,90.37,86.47h.09c.79-.56,3.22-2.11,6.65-2,3.03.09,5.17,1.42,5.99,2h.09c2.08-48.1,41.75-86.46,90.37-86.46s90.45,40.5,90.45,90.45Z"/>
    <path class="cls-1" d="m856.11,297.86c0,20.34-7.22,38.99-19.23,53.54-15.43,18.68-38.78,30.59-64.9,30.59s-49.47-11.91-64.9-30.59c-12.02-14.55-19.23-33.2-19.23-53.54,0-46.46,37.67-84.14,84.14-84.14s84.14,37.67,84.14,84.14Z"/>
    <path class="cls-1" d="m947.5,700.5c-.17.05-.33.1-.5.16"/>
    <rect class="cls-1" x="648.5" y="409.5" width="54" height=".5"/>
    <line class="cls-1" x1="675.5" y1="410" x2="675.5" y2="409.5"/>
    <rect class="cls-1" x="648.5" y="409.5" width="54" height=".5"/>
    <path class="cls-1" d="m648.5,409.5v303c-82.33-25.67-164.67-51.33-247-77v-303c4.33,1.35,8.67,2.7,13,4.05,3,.94,6,1.87,9,2.81l225,70.14Z"/>
    <polygon class="cls-1" points="675.5 409.5 675.5 409.64 675.49 410 648.5 410 648.5 409.5 675.5 409.5"/>
    <rect class="cls-1" x="648.5" y="409.5" width="13" height=".5"/>
    <rect class="cls-1" x="675.5" y="409.5" width="27" height=".5"/>
    <path class="cls-1" d="m922.5,325.5v6.43c-67.99,21.2-135.99,42.39-203.98,63.59,67.99-22.86,135.99-48.82,203.98-70.02Z"/>
    <path class="cls-1" d="m950.5,332.5v303h-.5v.16c-82.5,25.61-165,51.22-247.5,76.84v-303c73.34-22.77,146.66-45.54,220-68.31,3.67-1.13,7.33-2.27,11-3.41,5.67-1.76,11.33-3.52,17-5.28Z"/>
    <path class="cls-1" d="m950.5,332.5c-5.67,1.76-11.33,3.52-17,5.28-3.67,1.14-7.33,2.28-11,3.41-73.34,22.77-146.66,45.54-220,68.31h-27c3.67-1.14,7.33-2.3,11-3.48v-.52c10.67-3.33,21.35-6.66,32.02-9.98,67.99-21.2,135.99-42.39,203.98-63.59,3.67-1.14,7.33-2.29,11-3.43l.06-.24c5.65,1.42,11.3,2.83,16.94,4.24Z"/>
    <rect class="cls-1" x="686.5" y="409.5" width="16" height=".5"/>
    <rect class="cls-1" x="648.5" y="410" width="54" height="302.5"/>
    <line class="cls-1" x1="675.5" y1="409.5" x2="675.49" y2="409.5"/>
    <path class="cls-1" d="m675.49,409.5h-26.99l-225-70.14c-3-.94-6-1.87-9-2.81-4.33-1.35-8.67-2.7-13-4.05,4.33-1.33,8.67-2.67,13-4,3,.94,6,1.88,9,2.81,1.28.4,2.58.8,3.89,1.21,77.15,24.01,197.41,60.94,240.46,74.54.16.06.33.11.49.16.54.18,1.09.35,1.63.52,1.79.58,3.58,1.15,5.37,1.71.02,0,.05.01.07.02.03.01.06.02.08.03Z"/>
    <path class="cls-1" d="m675.89,409.65s0,0-.03,0c-.04-.02-.11-.04-.23-.09-.04,0-.08-.03-.13-.05h-.01"/>
    <path class="cls-1" d="m675.34,409.45c-1.79-.56-3.58-1.13-5.37-1.71-.54-.17-1.09-.34-1.63-.52-.16-.05-.33-.1-.49-.16-43.05-13.6-163.31-50.53-240.46-74.54-1.31-.41-2.61-.81-3.89-1.21v-15.81c37.48,12.95,89.53,32.22,136.63,49.96.05.02.11.05.17.07,58.47,22.02,109.26,41.68,115.04,43.92Z"/>
  </g>
</svg>