<?xml version="1.0" encoding="UTF-8"?>
<svg id="Layer_1" data-name="Layer 1" xmlns="http://www.w3.org/2000/svg" xmlns:xlink="http://www.w3.org/1999/xlink" viewBox="0 0 1366 768">
  <defs>
    <style>
      .cls-1, .cls-2, .cls-3, .cls-4, .cls-5, .cls-6, .cls-7, .cls-8, .cls-9, .cls-10, .cls-11, .cls-12, .cls-13, .cls-14, .cls-15, .cls-16, .cls-17, .cls-18, .cls-19, .cls-20, .cls-21, .cls-22, .cls-23, .cls-24 {
        stroke-miterlimit: 10;
      }

      .cls-1, .cls-2, .cls-3, .cls-4, .cls-8, .cls-11, .cls-12, .cls-14, .cls-15, .cls-20, .cls-21, .cls-22 {
        fill: none;
      }

      .cls-1, .cls-2, .cls-4, .cls-5, .cls-7, .cls-8, .cls-12, .cls-13, .cls-14, .cls-18, .cls-20, .cls-22, .cls-23 {
        stroke: #000;
      }

      .cls-1, .cls-2, .cls-11, .cls-12, .cls-21, .cls-22 {
        fill-rule: evenodd;
      }

      .cls-1, .cls-7, .cls-16 {
        stroke-width: .79px;
      }

      .cls-2, .cls-5, .cls-17 {
        stroke-width: .63px;
      }

      .cls-3, .cls-4 {
        stroke-width: .82px;
      }

      .cls-3, .cls-6, .cls-9, .cls-10, .cls-11, .cls-15, .cls-16, .cls-17, .cls-19, .cls-21, .cls-24 {
        stroke: #fff;
      }

      .cls-5, .cls-7, .cls-13, .cls-18, .cls-19, .cls-23, .cls-24 {
        fill: #fff;
      }

      .cls-6, .cls-11, .cls-12, .cls-18, .cls-19 {
        stroke-width: .76px;
      }

      .cls-8 {
        stroke-width: .7px;
      }

      .cls-9 {
        fill: url(#linear-gradient);
        stroke-width: 1.29px;
      }

      .cls-10, .cls-21, .cls-22, .cls-23, .cls-24 {
        stroke-width: .74px;
      }

      .cls-14, .cls-15 {
        stroke-width: .84px;
      }

      .cls-20 {
        stroke-width: .88px;
      }
    </style>
    <linearGradient id="linear-gradient" x1="683.5" y1="1328.83" x2="683.5" y2="573.94" gradientUnits="userSpaceOnUse">
      <stop offset="0" stop-color="#00ff50"/>
      <stop offset="1" stop-color="#000"/>
    </linearGradient>
  </defs>
  <line class="cls-13" x1="64.5" y1="660" x2="64.5" y2="659.5"/>
  <g>
    <rect class="cls-9" x="1" y="486.5" width="1365" height="279.5"/>
    <g>
      <g>
        <path class="cls-6" d="m173.51,503.48v-.61c-.67.33-1.32.68-1.96,1.04-11.42,6.51-18.63,18.43-18.76,31.4-.14,13.24,7.12,25.52,18.8,32.16h0c.62.37,1.27.71,1.92,1.03v-.61c2.11.4,4.29.61,6.51.61h401.99v6.94H175.33c-20.71,0-37.51-16.32-37.51-36.47v-6.56c0-20.14,16.79-36.47,37.51-36.47h406.68v6.94H180.02c-2.22,0-4.4.21-6.51.61Z"/>
        <path class="cls-18" d="m580.87,568.5H180.02c-2.22,0-4.4-.21-6.51-.61-.64-.12-1.28-.26-1.92-.42h0c-11.68-6.64-18.93-18.92-18.8-32.16.14-12.97,7.34-24.89,18.76-31.4.64-.16,1.3-.31,1.96-.43,2.11-.4,4.29-.61,6.51-.61h400.85c-6.14,3.05-11.19,7.59-14.77,13.05-3.74,5.7-5.88,12.39-5.95,19.39-.15,13.95,7.92,26.84,20.72,33.19Z"/>
        <path class="cls-12" d="m581.63,568.87c-.25-.12-.51-.24-.76-.37"/>
        <path class="cls-12" d="m581.63,502.5c-.25.12-.51.25-.76.37"/>
        <line class="cls-14" x1="566.28" y1="515.92" x2="423.59" y2="515.92"/>
        <line class="cls-14" x1="561.68" y1="524.87" x2="344.58" y2="524.87"/>
        <line class="cls-14" x1="560.15" y1="535.31" x2="432.8" y2="535.31"/>
        <line class="cls-14" x1="560.15" y1="544.26" x2="509.52" y2="544.26"/>
      </g>
      <g>
        <path class="cls-6" d="m580.85,422.94v-.61c.67.33,1.32.68,1.96,1.04,11.42,6.51,18.63,18.43,18.76,31.4.14,13.24-7.12,25.52-18.8,32.16h0c-.62.37-1.27.71-1.92,1.03v-.61c-2.11.4-4.29.61-6.51.61H172.35v6.94h406.68c20.71,0,37.51-16.32,37.51-36.47v-6.56c0-20.14-16.79-36.47-37.51-36.47H172.35v6.94h401.99c2.22,0,4.4.21,6.51.61Z"/>
        <path class="cls-19" d="m173.49,487.95h400.85c2.22,0,4.4-.21,6.51-.61.64-.12,1.28-.26,1.92-.42h0c11.68-6.64,18.93-18.92,18.8-32.16-.14-12.97-7.34-24.89-18.76-31.4-.64-.16-1.3-.31-1.96-.43-2.11-.4-4.29-.61-6.51-.61H173.49c6.14,3.05,11.19,7.59,14.77,13.05,3.74,5.7,5.88,12.39,5.95,19.39.15,13.95-7.92,26.84-20.72,33.19Z"/>
        <path class="cls-11" d="m172.73,488.33c.25-.12.51-.24.76-.37"/>
        <path class="cls-11" d="m172.73,421.95c.25.12.51.25.76.37"/>
        <line class="cls-14" x1="188.08" y1="435.38" x2="330.77" y2="435.38"/>
        <line class="cls-14" x1="192.68" y1="444.33" x2="409.78" y2="444.33"/>
        <line class="cls-14" x1="194.21" y1="454.77" x2="321.56" y2="454.77"/>
        <line class="cls-14" x1="194.21" y1="463.72" x2="244.85" y2="463.72"/>
      </g>
      <g>
        <path class="cls-17" d="m815.98,582.34l.32.42c-.61.1-1.22.18-1.82.24-10.86,1.11-21.78-3.51-28.64-12.28-7-8.96-8.67-20.85-4.51-31.05h0c.22-.55.46-1.1.72-1.64l.32.42c1.17-1.3,2.48-2.5,3.93-3.58l262.52-195.37-3.62-4.73-265.59,197.65c-13.53,10.07-15.98,29.36-5.46,43.09l3.42,4.47c10.51,13.73,30,16.7,43.52,6.63l265.59-197.65-3.62-4.73-262.52,195.37c-1.45,1.08-2.98,2-4.57,2.75Z"/>
        <path class="cls-5" d="m1048.09,340.04l-261.78,194.82c-1.45,1.08-2.77,2.28-3.93,3.58-.36.39-.7.8-1.03,1.22h0c-4.16,10.2-2.49,22.1,4.51,31.06,6.86,8.77,17.78,13.39,28.64,12.28.51-.2,1.01-.42,1.5-.66,1.59-.75,3.12-1.67,4.57-2.75l261.78-194.82c-5.6.9-11.27.27-16.45-1.72-5.42-2.06-10.31-5.59-14.01-10.32-7.38-9.44-8.83-22.15-3.79-32.69Z"/>
        <path class="cls-2" d="m1048.39,339.42c-.1.2-.21.41-.3.62"/>
        <path class="cls-2" d="m1083.02,384.66c-.23.04-.46.08-.69.11"/>
        <line class="cls-8" x1="1066" y1="382.96" x2="972.81" y2="452.31"/>
        <line class="cls-8" x1="1058.32" y1="379.1" x2="916.54" y2="484.62"/>
        <line class="cls-8" x1="1051.87" y1="372.73" x2="968.71" y2="434.62"/>
        <line class="cls-8" x1="1047.2" y1="366.63" x2="1014.14" y2="391.24"/>
      </g>
      <g>
        <path class="cls-6" d="m194.22,584.02v-.61c-.67.33-1.32.68-1.96,1.04-11.42,6.51-18.63,18.43-18.76,31.4-.14,13.24,7.12,25.52,18.8,32.16h0c.62.37,1.27.71,1.92,1.03v-.61c2.11.4,4.29.61,6.51.61h401.99v6.94H196.05c-20.71,0-37.51-16.32-37.51-36.47v-6.56c0-20.14,16.79-36.47,37.51-36.47h406.68v6.94H200.73c-2.22,0-4.4.21-6.51.61Z"/>
        <path class="cls-19" d="m601.58,649.04H200.73c-2.22,0-4.4-.21-6.51-.61-.64-.12-1.28-.26-1.92-.42h0c-11.68-6.64-18.93-18.92-18.8-32.16.14-12.97,7.34-24.89,18.76-31.4.64-.16,1.3-.31,1.96-.43,2.11-.4,4.29-.61,6.51-.61h400.85c-6.14,3.05-11.19,7.59-14.77,13.05-3.74,5.7-5.88,12.39-5.95,19.39-.15,13.95,7.92,26.84,20.72,33.19Z"/>
        <path class="cls-11" d="m602.34,649.41c-.25-.12-.51-.24-.76-.37"/>
        <path class="cls-11" d="m602.34,583.04c-.25.12-.51.25-.76.37"/>
        <line class="cls-15" x1="587" y1="596.46" x2="444.31" y2="596.46"/>
        <line class="cls-15" x1="582.4" y1="605.41" x2="365.29" y2="605.41"/>
        <line class="cls-15" x1="580.86" y1="615.85" x2="453.51" y2="615.85"/>
        <line class="cls-15" x1="580.86" y1="624.8" x2="530.23" y2="624.8"/>
      </g>
      <g>
        <path class="cls-10" d="m1209.68,545.9v-.6c.64.32,1.27.67,1.88,1.03,10.97,6.43,17.9,18.21,18.03,31.03.13,13.08-6.84,25.22-18.06,31.78h0c-.6.36-1.22.7-1.84,1.02v-.6c-2.03.4-4.12.6-6.26.6h-386.2s0,6.85,0,6.85h390.71c19.9,0,36.03-16.13,36.03-36.04v-6.49c0-19.91-16.13-36.04-36.03-36.04h-390.71s0,6.85,0,6.85h386.2c2.14,0,4.23.21,6.26.6Z"/>
        <path class="cls-23" d="m818.32,610.16h385.1c2.14,0,4.23-.21,6.26-.6.62-.12,1.23-.26,1.84-.41h0c11.22-6.56,18.19-18.7,18.06-31.78-.13-12.82-7.05-24.59-18.03-31.03-.62-.16-1.25-.3-1.88-.43-2.03-.4-4.12-.6-6.26-.6h-385.1c5.9,3.01,10.75,7.5,14.19,12.9,3.6,5.63,5.65,12.25,5.72,19.16.14,13.79-7.61,26.53-19.91,32.8Z"/>
        <path class="cls-22" d="m817.59,610.53c.24-.12.49-.24.73-.37"/>
        <path class="cls-22" d="m817.59,544.93c.24.12.49.24.73.37"/>
        <line class="cls-4" x1="832.33" y1="558.2" x2="969.42" y2="558.2"/>
        <line class="cls-4" x1="836.75" y1="567.04" x2="1045.33" y2="567.04"/>
        <line class="cls-4" x1="838.23" y1="577.36" x2="960.57" y2="577.36"/>
        <line class="cls-4" x1="838.23" y1="586.2" x2="886.87" y2="586.2"/>
      </g>
      <g>
        <path class="cls-10" d="m1235.89,466.3v-.6c.64.32,1.27.67,1.88,1.03,10.97,6.43,17.9,18.21,18.03,31.03.13,13.08-6.84,25.22-18.06,31.78h0c-.6.36-1.22.7-1.84,1.02v-.6c-2.03.4-4.12.6-6.26.6h-386.2v6.85h390.71c19.9,0,36.03-16.13,36.03-36.04v-6.49c0-19.91-16.13-36.04-36.03-36.04h-390.71v6.85h386.2c2.14,0,4.23.21,6.26.6Z"/>
        <path class="cls-24" d="m844.53,530.56h385.1c2.14,0,4.23-.21,6.26-.6.62-.12,1.23-.26,1.84-.41h0c11.22-6.56,18.19-18.7,18.06-31.78-.13-12.82-7.05-24.59-18.03-31.03-.62-.16-1.25-.3-1.88-.43-2.03-.4-4.12-.6-6.26-.6h-385.1c5.9,3.01,10.75,7.5,14.19,12.9,3.6,5.63,5.65,12.25,5.72,19.16.14,13.79-7.61,26.53-19.91,32.8Z"/>
        <path class="cls-21" d="m843.8,530.93c.24-.12.49-.24.73-.37"/>
        <path class="cls-21" d="m843.8,465.33c.24.12.49.24.73.37"/>
        <line class="cls-4" x1="858.54" y1="478.6" x2="995.63" y2="478.6"/>
        <line class="cls-4" x1="862.96" y1="487.44" x2="1071.54" y2="487.44"/>
        <line class="cls-3" x1="864.44" y1="497.76" x2="986.79" y2="497.76"/>
        <line class="cls-3" x1="864.44" y1="506.6" x2="913.08" y2="506.6"/>
      </g>
      <g>
        <path class="cls-10" d="m844.65,623.78v-.6c-.64.32-1.27.67-1.88,1.03-10.97,6.43-17.9,18.21-18.03,31.03-.13,13.08,6.84,25.22,18.06,31.78h0c.6.36,1.22.7,1.84,1.02v-.6c2.03.4,4.12.6,6.26.6h386.2v6.85h-390.71c-19.9,0-36.03-16.13-36.03-36.04v-6.49c0-19.91,16.13-36.04,36.03-36.04h390.71v6.85h-386.2c-2.14,0-4.23.21-6.26.6Z"/>
        <path class="cls-24" d="m1236.01,688.03h-385.1c-2.14,0-4.23-.21-6.26-.6-.62-.12-1.23-.26-1.84-.41h0c-11.22-6.56-18.19-18.7-18.06-31.78.13-12.82,7.05-24.59,18.03-31.03.62-.16,1.25-.3,1.88-.43,2.03-.4,4.12-.6,6.26-.6h385.1c-5.9,3.01-10.75,7.5-14.19,12.9-3.6,5.63-5.65,12.25-5.72,19.16-.14,13.79,7.61,26.53,19.91,32.8Z"/>
        <path class="cls-21" d="m1236.01,688.03c.24.13.49.25.73.37"/>
        <path class="cls-21" d="m1236.01,623.18c.24-.13.49-.25.73-.37"/>
        <line class="cls-3" x1="1222" y1="636.07" x2="1084.91" y2="636.07"/>
        <line class="cls-4" x1="1217.58" y1="644.92" x2="1009" y2="644.92"/>
        <line class="cls-4" x1="1216.11" y1="655.24" x2="1093.76" y2="655.24"/>
        <line class="cls-3" x1="1216.11" y1="664.08" x2="1167.46" y2="664.08"/>
      </g>
      <g>
        <path class="cls-16" d="m760.94,523.05v-.64c.7.34,1.38.71,2.05,1.09,11.96,6.82,19.5,19.29,19.64,32.87.14,13.86-7.45,26.72-19.68,33.66h0c-.65.38-1.33.74-2.01,1.08v-.64c-2.21.42-4.49.64-6.82.64h-420.82v7.26h425.73c21.68,0,39.26-17.09,39.26-38.18v-6.87c0-21.09-17.58-38.18-39.26-38.18h-425.73v7.26h420.82c2.33,0,4.61.22,6.82.64Z"/>
        <path class="cls-7" d="m334.49,591.11h419.63c2.33,0,4.61-.22,6.82-.64.67-.12,1.34-.27,2.01-.44h0c12.22-6.95,19.82-19.81,19.68-33.66-.14-13.58-7.69-26.05-19.64-32.87-.67-.17-1.36-.32-2.05-.45-2.21-.42-4.49-.64-6.82-.64h-419.63c6.42,3.19,11.72,7.95,15.46,13.66,3.92,5.96,6.15,12.98,6.23,20.3.15,14.61-8.3,28.1-21.69,34.74Z"/>
        <path class="cls-1" d="m333.7,591.5c.27-.12.53-.25.8-.39"/>
        <path class="cls-1" d="m333.7,522.02c.27.12.53.26.8.39"/>
        <line class="cls-20" x1="349.76" y1="536.07" x2="499.14" y2="536.07"/>
        <line class="cls-20" x1="354.58" y1="545.44" x2="581.85" y2="545.44"/>
        <line class="cls-20" x1="356.18" y1="556.37" x2="489.5" y2="556.37"/>
        <line class="cls-20" x1="356.18" y1="565.73" x2="409.19" y2="565.73"/>
      </g>
      <g>
        <path class="cls-16" d="m422.86,691.68v-.64c-.7.34-1.38.71-2.05,1.09-11.96,6.82-19.5,19.29-19.64,32.87-.14,13.86,7.45,26.72,19.68,33.66h0c.65.38,1.33.74,2.01,1.08v-.64c2.21.42,4.49.64,6.82.64h420.82v7.26h-425.73c-21.68,0-39.26-17.09-39.26-38.18v-6.87c0-21.09,17.58-38.18,39.26-38.18h425.73v7.26h-420.82c-2.33,0-4.61.22-6.82.64Z"/>
        <path class="cls-7" d="m849.31,759.74h-419.63c-2.33,0-4.61-.22-6.82-.64-.67-.12-1.34-.27-2.01-.44h0c-12.22-6.95-19.82-19.81-19.68-33.66.14-13.58,7.69-26.05,19.64-32.87.67-.17,1.36-.32,2.05-.45,2.21-.42,4.49-.64,6.82-.64h419.63c-6.42,3.19-11.72,7.95-15.46,13.66-3.92,5.96-6.15,12.98-6.23,20.3-.15,14.61,8.3,28.1,21.69,34.74Z"/>
        <path class="cls-1" d="m850.11,760.13c-.27-.12-.53-.25-.8-.39"/>
        <path class="cls-1" d="m850.11,690.65c-.27.12-.53.26-.8.39"/>
        <line class="cls-20" x1="834.04" y1="704.7" x2="684.67" y2="704.7"/>
        <line class="cls-20" x1="829.23" y1="714.07" x2="601.95" y2="714.07"/>
        <line class="cls-20" x1="827.62" y1="725" x2="694.3" y2="725"/>
        <line class="cls-20" x1="827.62" y1="734.37" x2="774.61" y2="734.37"/>
      </g>
      <g>
        <path class="cls-16" d="m440.88,437.6v-.64c-.7.34-1.38.71-2.05,1.09-11.96,6.82-19.5,19.29-19.64,32.87-.14,13.86,7.45,26.72,19.68,33.66h0c.65.38,1.33.74,2.01,1.08v-.64c2.21.42,4.49.64,6.82.64h420.82v7.26h-425.73c-21.68,0-39.26-17.09-39.26-38.18v-6.87c0-21.09,17.58-38.18,39.26-38.18h425.73v7.26h-420.82c-2.33,0-4.61.22-6.82.64Z"/>
        <path class="cls-7" d="m867.33,505.66h-419.63c-2.33,0-4.61-.22-6.82-.64-.67-.12-1.34-.27-2.01-.44h0c-12.22-6.95-19.82-19.81-19.68-33.66.14-13.58,7.69-26.05,19.64-32.87.67-.17,1.36-.32,2.05-.45,2.21-.42,4.49-.64,6.82-.64h419.63c-6.42,3.19-11.72,7.95-15.46,13.66-3.92,5.96-6.15,12.98-6.23,20.3-.15,14.61,8.3,28.1,21.69,34.74Z"/>
        <path class="cls-1" d="m868.13,506.05c-.27-.12-.53-.25-.8-.39"/>
        <path class="cls-1" d="m868.13,436.57c-.27.12-.53.26-.8.39"/>
        <line class="cls-20" x1="852.06" y1="450.62" x2="702.69" y2="450.62"/>
        <line class="cls-20" x1="847.25" y1="459.99" x2="619.97" y2="459.99"/>
        <line class="cls-20" x1="845.64" y1="470.92" x2="712.32" y2="470.92"/>
        <line class="cls-20" x1="845.64" y1="480.29" x2="792.63" y2="480.29"/>
      </g>
      <g>
        <path class="cls-16" d="m446.23,607.36v-.64c-.7.34-1.38.71-2.05,1.09-11.96,6.82-19.5,19.29-19.64,32.87-.14,13.86,7.45,26.72,19.68,33.66h0c.65.38,1.33.74,2.01,1.08v-.64c2.21.42,4.49.64,6.82.64h420.82v7.26h-425.73c-21.68,0-39.26-17.09-39.26-38.18v-6.87c0-21.09,17.58-38.18,39.26-38.18h425.73v7.26h-420.82c-2.33,0-4.61.22-6.82.64Z"/>
        <path class="cls-7" d="m872.68,675.42h-419.63c-2.33,0-4.61-.22-6.82-.64-.67-.12-1.34-.27-2.01-.44h0c-12.22-6.95-19.82-19.81-19.68-33.66.14-13.58,7.69-26.05,19.64-32.87.67-.17,1.36-.32,2.05-.45,2.21-.42,4.49-.64,6.82-.64h419.63c-6.42,3.19-11.72,7.95-15.46,13.66-3.92,5.96-6.15,12.98-6.23,20.3-.15,14.61,8.3,28.1,21.69,34.74Z"/>
        <path class="cls-1" d="m873.47,675.81c-.27-.12-.53-.25-.8-.39"/>
        <path class="cls-1" d="m873.47,606.33c-.27.12-.53.26-.8.39"/>
        <line class="cls-20" x1="857.41" y1="620.38" x2="708.03" y2="620.38"/>
        <line class="cls-20" x1="852.59" y1="629.75" x2="625.31" y2="629.75"/>
        <line class="cls-20" x1="850.99" y1="640.68" x2="717.67" y2="640.68"/>
        <line class="cls-20" x1="850.99" y1="650.05" x2="797.98" y2="650.05"/>
      </g>
    </g>
  </g>
</svg>