<?xml version="1.0" encoding="UTF-8"?>
<svg id="Layer_1" data-name="Layer 1" xmlns="http://www.w3.org/2000/svg" viewBox="0 0 1366 768">
  <defs>
    <style>
      .cls-1 {
        stroke-width: .55px;
      }

      .cls-1, .cls-2, .cls-3, .cls-4 {
        stroke-miterlimit: 10;
      }

      .cls-1, .cls-2, .cls-4 {
        stroke: #fff;
      }

      .cls-1, .cls-3 {
        fill: #fff;
      }

      .cls-2 {
        stroke-width: 3.61px;
      }

      .cls-3 {
        stroke: #000;
      }

      .cls-4 {
        stroke-width: 3.58px;
      }
    </style>
  </defs>
  <line class="cls-3" x1="64.5" y1="660" x2="64.5" y2="659.5"/>
  <g>
    <line class="cls-4" x1="409.88" y1="-49.62" x2="409.88" y2="74.19"/>
    <line class="cls-4" x1="946.9" y1="-60.89" x2="946.9" y2="85.81"/>
    <g>
      <path class="cls-2" d="m1007.32,179.73l-663.4-6.36c-11.34-.11-20.44-9.39-20.33-20.72l.6-62.92c.11-11.34,9.39-20.44,20.72-20.33l663.4,6.36c11.34.11,20.44,9.39,20.33,20.72l-.6,62.92c-.11,11.34-9.39,20.44-20.72,20.33Z"/>
      <g>
        <path class="cls-1" d="m432.49,103.79l8.19,44.51,11.34-54.51c.95-4.75,3.32-7.11,7.11-7.07,3.99.04,6.35,2.16,7.08,6.37l9.96,56.29,9.34-43.5c.66-3.07,1-5.42,1.01-7.03.03-2.87-1.43-4.32-4.37-4.35-.63,0-1.54.06-2.73.18-1.19.13-2.1.19-2.73.18-3.01-.03-4.5-1.27-4.48-3.72.02-2.38,1.5-3.55,4.45-3.53,1.12.01,2.27.09,3.46.24,5.73.76,9.51,1.14,11.33,1.16,1.4.01,3.48-.18,6.26-.57,2.77-.39,4.85-.58,6.25-.57,2.59.02,3.87,1.3,3.85,3.82-.02,2.31-1.29,3.45-3.81,3.42-.42,0-1.05-.1-1.89-.28-.84-.18-1.47-.28-1.89-.28-1.47-.01-2.54.54-3.22,1.65-.68,1.11-1.49,3.63-2.44,7.54l-12.24,49.98c-.95,3.84-3.14,5.75-6.57,5.71-3.64-.03-5.89-2.44-6.76-7.21l-10.08-55.66-12.2,56.92c-.81,3.77-2.82,5.64-6.04,5.61-3.29-.03-5.37-1.98-6.25-5.84l-12-52.42c-.6-2.67-1.37-4.48-2.31-5.43-.94-.95-2.42-1.44-4.45-1.46h-.73s-2.31.29-2.31.29c-2.24-.02-3.35-1.2-3.33-3.55.02-2.49,1.26-3.72,3.71-3.7.98,0,2.1.13,3.36.35,3.77.67,7.45,1.02,11.02,1.05,1.68.02,5.53-.3,11.56-.94,1.05-.13,2.07-.19,3.05-.18,2.52.02,3.77,1.19,3.75,3.5-.02,2.52-1.58,3.77-4.66,3.74-.63,0-1.59-.08-2.89-.24-1.3-.15-2.26-.23-2.89-.24-2.45-.02-3.69,1.12-3.71,3.43,0,.84.09,1.82.29,2.94l.6,3.37Z"/>
        <path class="cls-1" d="m522.94,102.46c.05-5.18-1.71-7.79-5.28-7.82-.98,0-1.72.05-2.21.19-1.12.2-2.07.29-2.84.29-.91,0-1.68-.35-2.3-1.02-.62-.67-.93-1.5-.92-2.48.02-2.45,1.5-3.66,4.43-3.63.07,0,.59.04,1.57.12,10.46.8,15.34,1.2,14.64,1.19h1.05s25.23-.48,25.23-.48c.49,0,2.3-.08,5.45-.26,1.12-.06,2.13-.08,3.04-.08,3.63.04,5.43,1.66,5.4,4.88,0,.56-.12,2.35-.35,5.35-.17,2.24-.27,4.3-.28,6.19-.02,2.45.02,4.17.13,5.15.21,2.03.32,3.54.31,4.52-.03,2.66-1.28,3.98-3.77,3.96-2.49-.02-3.71-1.89-3.68-5.6l.05-5.46c.06-5.88-1.14-9.36-3.58-10.43-1.81-.79-6.5-1.22-14.06-1.29-4.97-.05-7.91.03-8.82.23-3.02.74-4.54,2.83-4.58,6.26l-.05,4.73c0,.56-.01,1.33-.02,2.31,0,.98-.02,1.68-.02,2.1v1.37c-.04,2.8.57,4.42,1.8,4.85.48.15,1.31.22,2.48.23l4.25.04c4.35.04,6.54-1.44,6.57-4.45,0-.84-.07-1.93-.23-3.26-.16-1.33-.24-2.52-.23-3.57.03-2.8,1.28-4.19,3.77-4.17,2.48.02,3.71,1.54,3.68,4.55,0,.56-.25,2.73-.74,6.51-.42,3.22-.64,6.05-.66,8.5-.01,1.4.1,3.89.35,7.46.06.56.23,1.79.49,3.68.2,1.54.29,2.77.28,3.68-.02,2.52-1.3,3.77-3.82,3.75-2.45-.02-3.66-1.51-3.63-4.45,0-.77.1-1.89.3-3.36.19-1.47.29-2.59.29-3.36.03-3.01-1.95-4.54-5.94-4.57l-4.73-.05c-2.03-.02-3.28.32-3.74,1.01-.46.7-.7,2.2-.73,4.51l-.06,6.51c-.01,1.12,0,2.63.06,4.52.05,2.31.07,3.85.06,4.62.04,2.8.59,4.56,1.63,5.27.77.5,2.58.76,5.45.79l14.28.14c4.13.04,6.97-.55,8.52-1.76,1.55-1.21,2.34-3.5,2.38-6.86,0-1.05-.03-2.61-.11-4.68-.09-2.06-.12-3.62-.11-4.68.03-3.15,1.29-4.71,3.78-4.69,2.62.03,3.92,1.65,3.89,4.87-.01,1.26-.08,3.19-.21,5.77-.13,2.59-.2,4.51-.21,5.77,0,.98.03,2.43.12,4.36.09,1.93.13,3.38.12,4.36-.03,3.29-1.66,4.92-4.88,4.89-.77,0-2-.09-3.67-.25-.84-.08-2.38-.13-4.62-.15.49,0-2.24-.09-8.19-.29-5.95-.2-11.1-.32-15.44-.36-6.58-.06-13.03.09-19.33.45-.28,0-.6.03-.95.1-.35,0-.56,0-.63,0-2.94-.03-4.4-1.3-4.38-3.82.02-2.24,1.12-3.35,3.29-3.33.35,0,1.29.08,2.83.24.77.22,1.5.33,2.2.34,3.57.03,5.38-2.57,5.43-7.83l.4-42.12Z"/>
        <path class="cls-1" d="m602.05,143.91c-.04,4.11.36,6.55,1.19,7.32.62.63,1.44,1.02,2.46,1.17,1.01.15,3.31.24,6.88.27l9.24.09c4.83.05,8.06-.56,9.68-1.82,1.62-1.26,2.45-3.83,2.49-7.69.01-1.04-.01-2.25-.07-3.63-.12-2.69-.17-4.32-.16-4.87.03-3.04,1.27-4.55,3.72-4.52,2.94.03,4.4,1.44,4.37,4.24,0,.84-.05,1.51-.12,1.99l-.79,5.35c-.22,1.54-.35,3.15-.36,4.83,0,.98.06,2.43.22,4.36.16,1.93.23,3.38.22,4.36-.03,3.15-1.83,4.71-5.4,4.67-.7,0-2.31-.15-4.83-.41-1.68-.14-4.27-.28-7.77-.44l-7.88-.08-16.8-.16c-1.68-.02-4.48.1-8.41.34-.56,0-1.52.04-2.89.13-1.37.09-2.44.13-3.2.13-2.94-.03-4.4-1.3-4.38-3.82.02-2.24,1.12-3.35,3.29-3.33.56,0,1.4.12,2.52.34,1.12.22,1.96.33,2.52.34,3.57.03,5.38-2.57,5.43-7.83l.4-42.12c.05-5.18-1.71-7.79-5.28-7.82-.98,0-1.72.05-2.21.19-1.12.2-2.07.3-2.84.29-.91,0-1.68-.35-2.3-1.02-.62-.67-.93-1.5-.92-2.48.02-2.45,1.54-3.66,4.55-3.63.42,0,.95.05,1.57.12l5.56.68c3.08.38,5.35.58,6.82.59,1.82.02,4.06-.13,6.73-.46l4.84-.58c.56-.06,1.01-.09,1.37-.09,3.15.03,4.71,1.27,4.69,3.72,0,.98-.33,1.8-.97,2.46-.64.66-1.41.98-2.32.98-.7,0-1.64-.12-2.83-.34-.49-.14-1.22-.22-2.2-.23-3.57-.03-5.38,2.53-5.43,7.68l-.39,40.74Z"/>
        <path class="cls-1" d="m680.42,87.68c7.77.07,14.08,3.11,18.92,9.11v-1.18c.02-.36.02-.75.02-1.18-.14-.43-.2-.68-.2-.76-.13-1.58-.19-2.3-.19-2.15.02-2.44,1.12-3.65,3.29-3.63,2.31.02,3.45,1.5,3.42,4.44,0,.56-.09,2.24-.26,5.04-.45,3.5-.69,5.91-.7,7.24-.02,1.89.08,3.82.3,5.78l.44,4v1.05c-.04,3.15-1.32,4.71-3.84,4.69-2.73-.03-4.05-1.53-3.95-4.52l.04-3.75c.19-5-1.34-9.08-4.6-12.23-3.25-3.16-7.53-4.76-12.84-4.81-6.91-.07-12.35,2.54-16.31,7.83-3.96,5.28-5.99,12.62-6.08,22-.09,9.59,1.85,17.09,5.82,22.48,3.97,5.39,9.57,8.13,16.78,8.2,3.92.04,7.45-.87,10.58-2.73,3.13-1.86,5.35-4.32,6.64-7.39.86-2.02,1.31-4.75,1.34-8.18.03-3.22,1.38-4.82,4.04-4.79,2.87.03,4.29,1.65,4.26,4.87-.07,7.49-2.72,13.59-7.95,18.31-5.23,4.71-11.94,7.03-20.13,6.95-9.45-.09-16.97-3.49-22.54-10.19-5.57-6.7-8.3-15.59-8.2-26.65.11-11.41,3.09-20.59,8.93-27.54,5.84-6.95,13.49-10.37,22.94-10.28Z"/>
        <path class="cls-1" d="m745.35,162.99c-9.31-.09-16.65-3.52-22.01-10.29-5.36-6.77-7.99-15.9-7.88-27.39.11-11.62,2.93-20.72,8.45-27.28,5.52-6.56,13.08-9.8,22.68-9.71,9.17.09,16.44,3.38,21.81,9.87,5.36,6.49,7.99,15.24,7.89,26.23-.11,11.9-2.95,21.33-8.52,28.28-5.56,6.95-13.04,10.38-22.42,10.29Zm.85-67.11c-6.72-.06-11.96,2.48-15.72,7.62-3.76,5.15-5.69,12.41-5.78,21.79-.09,9.52,1.69,16.91,5.35,22.16,3.66,5.25,8.82,7.91,15.47,7.97,6.51.06,11.7-2.6,15.57-7.99,3.87-5.39,5.85-12.74,5.94-22.05.09-9.38-1.66-16.63-5.25-21.74-3.59-5.11-8.79-7.7-15.58-7.76Z"/>
        <path class="cls-1" d="m814.02,98.73l15.67,53.3,18.29-56.44c.94-2.93,2.53-4.39,4.77-4.37h.52c.7.01,1.61.13,2.73.35,1.4.37,2.31.55,2.73.55,1.12.15,2.66.23,4.62.25,2.1.02,3.75-.07,4.94-.27l3.68-.6c.21-.07.63-.1,1.26-.09,3.22.03,4.82,1.27,4.8,3.72-.02,2.24-1.15,3.35-3.39,3.33-.56,0-1.38-.1-2.46-.29-1.09-.18-1.91-.28-2.47-.29-3.57-.03-5.38,2.57-5.43,7.83l-.07,7.35-.09,9.24-.09,8.93-.16,16.59c-.05,5.25,1.67,7.89,5.18,7.93.7,0,1.47-.09,2.31-.29,1.54-.12,2.45-.19,2.73-.18,2.24.02,3.35,1.15,3.33,3.39-.02,2.52-1.54,3.77-4.55,3.74.14,0-.38-.07-1.57-.22-4.83-.61-8.92-.93-12.28-.96-3.29-.03-6.45.18-9.46.64-1.26.2-2.38.29-3.36.28-2.73-.03-4.09-1.21-4.06-3.56.02-2.42,1.45-3.61,4.27-3.58.71,0,1.23.06,1.59.15,1.55.2,2.47.3,2.75.31,2.54.02,4.15-2.58,4.84-7.82.15-1.12.26-4.68.32-10.69.02-2.31.12-5.66.31-10.06l.09-9.43.18-18.56c0-.42-.17-.63-.52-.63-.21,0-.42.21-.64.62l-19.9,59.69c-.87,2.65-2.84,3.96-5.92,3.93-1.82-.02-3.17-.29-4.04-.83-.87-.53-1.54-1.61-2.02-3.22l-18.44-60.06c-.21-.42-.45-.63-.73-.64-.28,0-.42.21-.43.62l.16,48.57c.02,5.08,1.4,7.64,4.13,7.66.77,0,1.82.02,3.15.03h1.26c2.73.04,4.08,1.24,4.06,3.62-.02,2.38-1.44,3.56-4.23,3.53-.49,0-1.23-.08-2.2-.23-1.54-.22-3.18-.49-4.93-.78-1.4-.22-3.18-.35-5.35-.37-3.85-.04-6.34.04-7.46.24l-4.42.8c-.14,0-.35.03-.63.1-.28,0-.49,0-.63,0-3.22-.03-4.82-1.27-4.8-3.72,0-.98.33-1.8.97-2.46.64-.66,1.41-.98,2.32-.97.77,0,1.68.12,2.73.34,1.05.22,1.82.33,2.31.34,3.57.03,5.38-2.57,5.43-7.83l.4-42.22c.05-5.25-1.71-7.89-5.28-7.93-.56,0-1.4.08-2.52.24-1.12.16-1.96.24-2.52.24-2.17-.02-3.25-1.15-3.22-3.39.02-2.45,1.61-3.66,4.76-3.63.28,0,.74.04,1.36.12l3.67.46c1.82.23,3.53.35,5.14.36,1.33.01,3.13-.11,5.41-.37,2.28-.26,3.94-.38,4.99-.37,2.73.03,4.53,1.76,5.41,5.2l.71,2.74Z"/>
        <path class="cls-1" d="m895.67,106.03c.05-5.18-1.71-7.79-5.28-7.82-.98,0-1.72.05-2.21.19-1.12.2-2.07.3-2.84.29-.91,0-1.68-.35-2.3-1.02-.62-.67-.93-1.5-.92-2.48.02-2.45,1.5-3.66,4.43-3.63.07,0,.59.04,1.57.12,10.46.8,15.34,1.2,14.64,1.19h1.05s25.23-.48,25.23-.48c.49,0,2.3-.08,5.45-.26,1.12-.06,2.13-.08,3.04-.08,3.63.03,5.43,1.66,5.4,4.88,0,.56-.12,2.35-.35,5.35-.17,2.24-.27,4.3-.28,6.19-.02,2.45.02,4.17.13,5.15.21,2.03.32,3.54.31,4.52-.03,2.66-1.28,3.98-3.77,3.96-2.49-.02-3.71-1.89-3.67-5.6l.05-5.46c.06-5.88-1.14-9.36-3.58-10.43-1.81-.79-6.5-1.22-14.06-1.29-4.97-.05-7.91.03-8.82.23-3.02.74-4.54,2.83-4.58,6.26l-.05,4.73c0,.56-.01,1.33-.02,2.31,0,.98-.02,1.68-.02,2.1v1.37c-.04,2.8.56,4.42,1.8,4.85.48.15,1.31.22,2.48.23l4.25.04c4.35.04,6.54-1.44,6.57-4.45,0-.84-.07-1.93-.23-3.26-.16-1.33-.24-2.52-.23-3.57.03-2.8,1.28-4.19,3.77-4.16,2.48.02,3.71,1.54,3.68,4.55,0,.56-.25,2.73-.74,6.5-.42,3.22-.64,6.05-.66,8.5-.01,1.4.1,3.89.35,7.46.06.56.23,1.79.49,3.68.2,1.54.29,2.77.28,3.68-.02,2.52-1.3,3.77-3.82,3.74-2.45-.02-3.66-1.51-3.63-4.45,0-.77.1-1.89.3-3.36.19-1.47.29-2.59.29-3.36.03-3.01-1.95-4.53-5.94-4.57l-4.73-.04c-2.03-.02-3.28.32-3.74,1.01-.46.7-.7,2.2-.73,4.51l-.06,6.51c-.01,1.12,0,2.63.06,4.52.05,2.31.07,3.85.06,4.62.04,2.8.59,4.56,1.63,5.27.77.5,2.58.76,5.45.79l14.28.14c4.13.04,6.97-.55,8.53-1.76,1.55-1.21,2.34-3.5,2.38-6.86,0-1.05-.03-2.61-.11-4.68-.09-2.07-.12-3.63-.11-4.68.03-3.15,1.29-4.71,3.77-4.69,2.62.03,3.92,1.65,3.89,4.87-.01,1.26-.08,3.19-.21,5.78-.13,2.59-.2,4.51-.21,5.77,0,.98.03,2.43.12,4.36.09,1.93.13,3.38.12,4.36-.03,3.29-1.66,4.92-4.88,4.89-.77,0-1.99-.09-3.67-.24-.84-.08-2.38-.13-4.62-.15.49,0-2.24-.09-8.19-.29-5.95-.2-11.1-.32-15.44-.36-6.58-.06-13.02.09-19.33.44-.28,0-.6.03-.95.1-.35,0-.56,0-.63,0-2.94-.03-4.4-1.3-4.38-3.82.02-2.24,1.12-3.35,3.29-3.33.35,0,1.29.08,2.83.24.77.22,1.5.33,2.2.34,3.57.03,5.38-2.57,5.43-7.83l.4-42.12Z"/>
      </g>
    </g>
  </g>
</svg>