<?xml version="1.0" encoding="UTF-8"?>
<svg id="Layer_1" data-name="Layer 1" xmlns="http://www.w3.org/2000/svg" viewBox="0 0 1366 768">
  <defs>
    <style>
      .cls-1 {
        stroke-width: 5.04px;
      }

      .cls-1, .cls-2, .cls-3, .cls-4 {
        stroke-miterlimit: 10;
      }

      .cls-1, .cls-2, .cls-4 {
        stroke: #fff;
      }

      .cls-2 {
        stroke-width: 5px;
      }

      .cls-3 {
        stroke: #000;
      }

      .cls-3, .cls-4 {
        fill: #fff;
      }

      .cls-4 {
        stroke-width: .77px;
      }
    </style>
  </defs>
  <line class="cls-3" x1="64.5" y1="660" x2="64.5" y2="659.5"/>
  <g>
    <line class="cls-2" x1="293.5" y1="-147" x2="293.5" y2="26"/>
    <line class="cls-2" x1="1049.5" y1="-139" x2="1049.5" y2="66"/>
    <g>
      <path class="cls-1" d="m1130.75,214.35l-926.03-43.25c-15.82-.74-28.05-14.17-27.31-29.99l4.1-87.83c.74-15.82,14.17-28.05,29.99-27.31l926.03,43.25c15.82.74,28.05,14.17,27.31,29.99l-4.1,87.83c-.74,15.82-14.17,28.05-29.99,27.31Z"/>
      <g>
        <path class="cls-4" d="m331.99,78.52l9.12,62.58,18.66-75.53c1.58-6.59,5.01-9.76,10.29-9.51,5.57.26,8.76,3.35,9.56,9.26l11,79.12,15.3-60.26c1.08-4.26,1.67-7.51,1.78-9.76.19-4.01-1.77-6.11-5.88-6.3-.88-.04-2.16,0-3.83.12-1.67.12-2.95.16-3.83.12-4.2-.2-6.22-2.01-6.06-5.43.16-3.32,2.29-4.89,6.39-4.69,1.56.07,3.17.25,4.82.52,7.97,1.35,13.22,2.09,15.76,2.21,1.95.09,4.88-.07,8.76-.47,3.89-.41,6.81-.56,8.76-.47,3.61.17,5.34,2.01,5.18,5.54-.15,3.22-1.98,4.75-5.5,4.58-.59-.03-1.46-.19-2.62-.49-1.16-.3-2.04-.46-2.62-.49-2.05-.1-3.58.62-4.58,2.14-1,1.52-2.27,4.99-3.79,10.4l-19.69,69.16c-1.52,5.32-4.68,7.86-9.47,7.64-5.08-.24-8.1-3.71-9.06-10.41l-11.19-78.25-19.99,78.85c-1.32,5.23-4.23,7.74-8.73,7.53-4.6-.21-7.4-3.04-8.42-8.47l-14.04-73.82c-.71-3.75-1.69-6.32-2.95-7.7-1.26-1.38-3.31-2.14-6.14-2.27l-1.03-.05-3.25.29c-3.13-.15-4.62-1.86-4.46-5.13.16-3.47,1.95-5.13,5.37-4.97,1.37.06,2.93.28,4.67.66,5.24,1.13,10.35,1.81,15.33,2.04,2.35.11,7.74-.13,16.19-.71,1.48-.13,2.9-.16,4.27-.09,3.52.16,5.2,1.86,5.05,5.08-.16,3.52-2.4,5.18-6.7,4.98-.88-.04-2.22-.2-4.02-.48-1.8-.28-3.14-.44-4.02-.48-3.42-.16-5.21,1.37-5.36,4.6-.05,1.17.03,2.55.25,4.13l.66,4.73Z"/>
        <path class="cls-4" d="m458.36,81.34c.34-7.23-1.99-10.96-6.97-11.2-1.37-.06-2.4-.01-3.09.15-1.58.22-2.9.3-3.98.25-1.27-.06-2.32-.57-3.16-1.54-.84-.97-1.22-2.14-1.16-3.51.16-3.42,2.29-5.04,6.38-4.84.1,0,.83.09,2.18.25,14.56,1.66,21.36,2.47,20.39,2.42l1.46.07,35.26.62c.68.03,3.22,0,7.62-.08,1.56-.02,2.98,0,4.24.05,5.06.24,7.49,2.6,7.28,7.1-.04.78-.29,3.27-.77,7.46-.36,3.12-.59,6-.72,8.64-.16,3.42-.19,5.82-.09,7.19.19,2.85.26,4.96.19,6.33-.17,3.72-2,5.49-5.46,5.33-3.47-.16-5.08-2.83-4.84-8.01l.36-7.62c.38-8.21-1.1-13.13-4.45-14.75-2.49-1.19-9.01-2.04-19.57-2.53-6.94-.32-11.05-.37-12.33-.13-4.25.88-6.49,3.71-6.72,8.5l-.31,6.6c-.04.78-.09,1.86-.15,3.23-.06,1.37-.11,2.35-.14,2.93l-.09,1.91c-.18,3.91.58,6.2,2.29,6.87.66.23,1.82.38,3.46.46l5.93.28c6.07.28,9.21-1.67,9.4-5.88.05-1.17,0-2.69-.15-4.56-.16-1.87-.2-3.54-.13-5,.18-3.91,2.01-5.78,5.48-5.62,3.47.16,5.11,2.35,4.91,6.55-.04.78-.49,3.8-1.37,9.05-.75,4.47-1.21,8.42-1.37,11.84-.09,1.96-.06,5.43.1,10.44.06.79.23,2.51.49,5.17.19,2.17.26,3.88.2,5.15-.16,3.52-2.01,5.2-5.52,5.03-3.42-.16-5.04-2.29-4.84-6.4.05-1.07.24-2.63.59-4.67.34-2.04.53-3.6.58-4.67.2-4.2-2.49-6.43-8.06-6.69l-6.6-.31c-2.84-.13-4.59.28-5.27,1.22-.68.95-1.1,3.03-1.25,6.26l-.42,9.09c-.07,1.56-.12,3.67-.15,6.31-.05,3.23-.11,5.38-.16,6.46-.09,3.91.58,6.4,2,7.44,1.04.73,3.57,1.19,7.58,1.38l19.94.93c5.77.27,9.76-.4,11.99-2.01,2.23-1.61,3.45-4.76,3.67-9.45.07-1.47.1-3.64.08-6.54-.01-2.89.02-5.07.08-6.53.21-4.4,2.04-6.52,5.51-6.35,3.66.17,5.39,2.51,5.18,7-.08,1.76-.28,4.45-.6,8.05-.32,3.61-.51,6.29-.6,8.05-.06,1.37-.08,3.4-.06,6.09.02,2.7,0,4.73-.06,6.09-.21,4.6-2.57,6.79-7.07,6.58-1.08-.05-2.78-.23-5.12-.53-1.17-.15-3.32-.3-6.44-.45.68.03-3.12-.24-11.42-.83-8.3-.58-15.48-1.02-21.54-1.3-9.19-.43-18.19-.56-27.02-.38-.39-.02-.83,0-1.33.08-.49-.02-.78-.04-.88-.04-4.1-.19-6.08-2.05-5.91-5.57.15-3.13,1.73-4.62,4.76-4.48.49.02,1.8.18,3.94.48,1.06.34,2.08.54,3.06.58,4.98.23,7.65-3.32,7.99-10.65l2.75-58.79Z"/>
        <path class="cls-4" d="m566.69,143.33c-.27,5.74.16,9.17,1.28,10.29.84.92,1.96,1.5,3.37,1.76,1.41.26,4.6.51,9.59.74l12.9.6c6.74.32,11.28-.37,13.61-2.04,2.33-1.68,3.62-5.22,3.88-10.61.07-1.45.1-3.14.09-5.07-.02-3.77-.01-6.04.02-6.81.2-4.24,2.01-6.28,5.43-6.12,4.11.19,6.07,2.24,5.88,6.15-.05,1.17-.15,2.1-.28,2.78l-1.38,7.43c-.39,2.14-.65,4.38-.75,6.72-.06,1.37-.04,3.4.08,6.1.12,2.7.15,4.73.08,6.1-.21,4.4-2.8,6.48-7.78,6.25-.98-.05-3.22-.32-6.72-.83-2.34-.28-5.95-.62-10.82-1.02l-11-.51-23.46-1.1c-2.35-.11-6.27-.09-11.76.04-.78-.04-2.13-.03-4.04.03-1.91.06-3.41.06-4.48.01-4.1-.19-6.08-2.05-5.91-5.56.15-3.13,1.73-4.62,4.76-4.48.78.04,1.95.24,3.5.6,1.55.37,2.71.57,3.5.6,4.98.23,7.65-3.32,7.99-10.65l2.75-58.79c.34-7.23-1.99-10.96-6.97-11.2-1.37-.06-2.4-.01-3.09.15-1.58.22-2.9.31-3.98.26-1.27-.06-2.32-.57-3.16-1.54-.84-.97-1.22-2.14-1.16-3.51.16-3.42,2.34-5.03,6.54-4.84.59.03,1.32.11,2.19.25l7.73,1.24c4.28.69,7.44,1.08,9.5,1.18,2.54.12,5.68.02,9.42-.29l6.79-.57c.79-.06,1.42-.08,1.91-.06,4.4.21,6.52,2.02,6.36,5.44-.06,1.37-.56,2.5-1.48,3.38-.92.89-2.02,1.3-3.29,1.24-.98-.05-2.29-.25-3.94-.62-.68-.23-1.7-.37-3.07-.44-4.98-.23-7.65,3.25-7.98,10.44l-2.66,56.86Z"/>
        <path class="cls-4" d="m679.04,68.87c10.85.51,19.5,5.08,25.95,13.7l.08-1.65c.02-.5.05-1.05.08-1.65-.17-.61-.25-.96-.24-1.07-.09-2.21-.14-3.22-.15-3.02.16-3.4,1.75-5.03,4.79-4.89,3.22.15,4.74,2.28,4.55,6.38-.04.78-.24,3.12-.62,7.02-.81,4.86-1.26,8.22-1.35,10.07-.12,2.64-.08,5.34.12,8.09l.41,5.6-.07,1.47c-.21,4.4-2.07,6.52-5.59,6.35-3.81-.18-5.57-2.35-5.28-6.51l.24-5.23c.52-6.97-1.41-12.74-5.78-17.32-4.38-4.58-10.27-7.04-17.68-7.38-9.65-.45-17.38,2.91-23.18,10.08-5.81,7.17-9.01,17.31-9.62,30.41-.62,13.39,1.7,23.95,6.97,31.69,5.27,7.74,12.94,11.84,23.01,12.31,5.47.26,10.45-.83,14.92-3.27,4.47-2.44,7.69-5.76,9.65-9.98,1.3-2.78,2.07-6.56,2.29-11.35.21-4.49,2.17-6.66,5.89-6.48,4.01.19,5.91,2.53,5.7,7.02-.49,10.46-4.5,18.84-12.05,25.15-7.54,6.31-17.03,9.19-28.47,8.66-13.19-.62-23.51-5.75-30.94-15.4-7.43-9.65-10.79-22.2-10.07-37.64.74-15.93,5.38-28.59,13.9-37.99,8.52-9.4,19.38-13.79,32.57-13.17Z"/>
        <path class="cls-4" d="m765.79,177.39c-13-.61-23.07-5.78-30.2-15.52-7.14-9.74-10.33-22.62-9.58-38.65.76-16.22,5.16-28.78,13.22-37.66,8.05-8.88,18.78-13.01,32.17-12.38,12.8.6,22.78,5.57,29.94,14.92,7.15,9.35,10.37,21.69,9.66,37.04-.78,16.62-5.23,29.63-13.36,39.04-8.13,9.42-18.74,13.82-31.84,13.21Zm4.67-93.67c-9.38-.44-16.83,2.84-22.35,9.83-5.52,6.99-8.58,17.04-9.19,30.13-.62,13.29,1.49,23.7,6.33,31.22,4.84,7.53,11.9,11.5,21.19,11.94,9.09.42,16.47-3.03,22.16-10.35,5.68-7.32,8.82-17.49,9.43-30.49.61-13.1-1.46-23.31-6.21-30.63-4.75-7.32-11.87-11.21-21.35-11.65Z"/>
        <path class="cls-4" d="m865.03,91.23l19.11,75.24,28.47-77.86c1.46-4.05,3.76-6,6.89-5.85l.73.03c.98.05,2.24.25,3.79.62,1.93.58,3.19.88,3.78.91,1.55.27,3.7.47,6.44.59,2.93.14,5.23.1,6.91-.12l5.17-.64c.3-.08.89-.11,1.77-.06,4.49.21,6.66,2.03,6.5,5.45-.15,3.13-1.78,4.62-4.91,4.47-.78-.04-1.92-.21-3.43-.53-1.51-.31-2.65-.49-3.43-.53-4.98-.23-7.65,3.32-7.99,10.65l-.48,10.26-.6,12.9-.58,12.46-1.08,23.16c-.34,7.33,1.93,11.11,6.82,11.34.97.05,2.06-.05,3.25-.29,2.16-.09,3.43-.13,3.82-.12,3.13.15,4.62,1.78,4.47,4.91-.16,3.52-2.35,5.18-6.55,4.98.2,0-.53-.12-2.18-.4-6.71-1.1-12.41-1.76-17.1-1.97-4.59-.21-9.01-.08-13.24.41-1.77.21-3.34.28-4.71.22-3.81-.18-5.64-1.9-5.49-5.18.16-3.37,2.21-4.97,6.15-4.78.98.05,1.72.15,2.21.3,2.16.36,3.43.55,3.82.57,3.54.17,5.93-3.39,7.16-10.67.27-1.55.6-6.52.99-14.91.15-3.22.46-7.9.95-14.03l.62-13.17,1.21-25.9c.03-.58-.21-.89-.69-.91-.29-.01-.6.27-.92.84l-30.88,82.32c-1.35,3.65-4.17,5.38-8.47,5.18-2.54-.12-4.41-.57-5.59-1.36-1.19-.79-2.07-2.32-2.65-4.6l-22.63-84.82c-.27-.6-.6-.91-.99-.92-.39-.02-.6.27-.63.85l-2.29,67.84c-.24,7.1,1.56,10.74,5.37,10.92,1.07.05,2.54.12,4.4.21l1.76.08c3.81.18,5.64,1.93,5.48,5.25-.16,3.32-2.19,4.89-6.1,4.71-.69-.03-1.71-.18-3.07-.44-2.14-.39-4.42-.84-6.84-1.35-1.94-.38-4.43-.65-7.46-.79-5.38-.25-8.85-.27-10.43-.05l-6.21.88c-.2,0-.49.03-.89.11-.39-.02-.68-.03-.88-.04-4.5-.21-6.66-2.02-6.5-5.45.06-1.37.56-2.49,1.48-3.38.92-.89,2.02-1.3,3.29-1.24,1.07.05,2.34.26,3.79.62,1.45.36,2.52.56,3.21.59,4.98.23,7.65-3.32,7.99-10.65l2.75-58.94c.34-7.33-1.98-11.11-6.96-11.34-.78-.04-1.96.03-3.54.2-1.58.17-2.75.24-3.54.2-3.03-.14-4.47-1.77-4.33-4.9.16-3.42,2.44-5.03,6.84-4.82.39.02,1.03.1,1.9.24l5.1.83c2.53.41,4.91.67,7.16.78,1.86.09,4.38,0,7.58-.23,3.19-.24,5.53-.33,6.99-.26,3.81.18,6.24,2.69,7.29,7.54l.85,3.86Z"/>
        <path class="cls-4" d="m978.66,105.64c.34-7.23-1.99-10.96-6.97-11.2-1.37-.06-2.4-.01-3.09.15-1.58.22-2.9.31-3.98.25-1.27-.06-2.33-.57-3.16-1.54-.84-.97-1.22-2.14-1.16-3.51.16-3.42,2.29-5.04,6.38-4.84.1,0,.82.09,2.18.25,14.56,1.66,21.36,2.47,20.39,2.42l1.46.07,35.26.62c.68.03,3.22,0,7.62-.08,1.56-.02,2.97,0,4.24.05,5.06.24,7.49,2.6,7.28,7.1-.04.78-.29,3.27-.77,7.46-.36,3.12-.59,6-.72,8.63-.16,3.42-.19,5.82-.09,7.2.19,2.85.26,4.96.19,6.33-.17,3.72-2,5.49-5.46,5.33-3.47-.16-5.08-2.83-4.84-8.01l.36-7.62c.38-8.21-1.1-13.13-4.45-14.75-2.49-1.19-9.01-2.04-19.57-2.53-6.94-.32-11.05-.37-12.33-.14-4.25.88-6.49,3.71-6.71,8.5l-.31,6.6c-.04.78-.09,1.86-.15,3.22-.06,1.37-.11,2.35-.14,2.93l-.09,1.91c-.18,3.91.58,6.2,2.29,6.87.67.23,1.82.38,3.46.46l5.93.28c6.07.28,9.21-1.68,9.4-5.88.05-1.17,0-2.69-.15-4.56-.16-1.87-.2-3.54-.13-5,.18-3.91,2.01-5.78,5.48-5.62,3.47.16,5.11,2.35,4.91,6.55-.04.78-.49,3.8-1.37,9.04-.75,4.47-1.21,8.42-1.37,11.84-.09,1.96-.06,5.43.1,10.44.06.79.23,2.51.49,5.17.19,2.16.26,3.88.2,5.15-.17,3.52-2.01,5.2-5.52,5.03-3.42-.16-5.04-2.29-4.84-6.4.05-1.07.24-2.63.59-4.67.34-2.04.54-3.6.59-4.67.2-4.2-2.49-6.43-8.06-6.69l-6.6-.31c-2.84-.13-4.59.28-5.27,1.22-.68.95-1.1,3.03-1.25,6.26l-.42,9.09c-.07,1.56-.12,3.67-.15,6.31-.05,3.23-.11,5.38-.15,6.46-.09,3.92.58,6.4,2,7.44,1.04.73,3.57,1.2,7.58,1.38l19.94.93c5.77.27,9.77-.4,12-2.01,2.23-1.61,3.45-4.76,3.67-9.45.07-1.47.1-3.64.08-6.53-.01-2.89.02-5.07.09-6.53.21-4.4,2.04-6.52,5.51-6.35,3.66.17,5.39,2.51,5.18,7-.08,1.76-.28,4.45-.6,8.05-.31,3.61-.51,6.29-.6,8.05-.06,1.37-.08,3.4-.06,6.09.02,2.7,0,4.73-.06,6.09-.21,4.59-2.57,6.79-7.07,6.58-1.08-.05-2.78-.23-5.12-.53-1.17-.15-3.32-.3-6.44-.45.68.03-3.13-.25-11.42-.83-8.3-.58-15.48-1.02-21.54-1.3-9.19-.43-18.19-.56-27.02-.38-.39-.02-.83,0-1.33.08-.49-.02-.78-.04-.88-.04-4.1-.19-6.08-2.05-5.91-5.57.15-3.13,1.73-4.62,4.76-4.48.49.02,1.8.18,3.94.48,1.06.34,2.08.54,3.06.58,4.98.23,7.65-3.32,7.99-10.65l2.75-58.79Z"/>
      </g>
    </g>
  </g>
</svg>