<?xml version="1.0" encoding="UTF-8"?>
<svg id="Layer_2" data-name="Layer 2" xmlns="http://www.w3.org/2000/svg" viewBox="0 0 192.24 192.24">
  <defs>
    <style>
      .cls-1 {
        fill: #a0b969;
        fill-rule: evenodd;
      }
    </style>
  </defs>
  <g id="Layer_1-2" data-name="Layer 1">
    <path class="cls-1" d="m96.12,0c53.05,0,96.12,43.07,96.12,96.12s-43.07,96.12-96.12,96.12S0,149.17,0,96.12,43.07,0,96.12,0Zm0,36.05c-16.32,0-18.36.07-24.77.36-6.39.29-10.76,1.31-14.58,2.79-3.95,1.54-7.3,3.59-10.64,6.93s-5.39,6.69-6.93,10.64c-1.48,3.82-2.5,8.19-2.79,14.58-.29,6.41-.36,8.45-.36,24.77s.07,18.36.36,24.77c.29,6.39,1.31,10.76,2.79,14.58,1.54,3.95,3.59,7.3,6.93,10.64,3.34,3.34,6.69,5.39,10.64,6.93,3.82,1.48,8.19,2.5,14.58,2.79,6.41.29,8.45.36,24.77.36s18.36-.07,24.77-.36c6.39-.29,10.76-1.31,14.58-2.79,3.95-1.54,7.3-3.59,10.64-6.93,3.34-3.34,5.39-6.69,6.93-10.64,1.48-3.82,2.5-8.19,2.79-14.58.29-6.41.36-8.45.36-24.77s-.07-18.36-.36-24.77c-.29-6.39-1.31-10.76-2.79-14.58-1.54-3.95-3.59-7.3-6.93-10.64-3.34-3.34-6.69-5.39-10.64-6.93-3.82-1.48-8.19-2.5-14.58-2.79-6.41-.29-8.45-.36-24.77-.36Zm0,10.82c16.04,0,17.94.06,24.28.35,5.86.27,9.04,1.25,11.15,2.07,2.8,1.09,4.81,2.39,6.91,4.49,2.1,2.1,3.4,4.1,4.49,6.91.82,2.12,1.8,5.3,2.07,11.15.29,6.33.35,8.23.35,24.28s-.06,17.94-.35,24.28c-.27,5.86-1.25,9.04-2.07,11.15-1.09,2.8-2.39,4.81-4.49,6.91-2.1,2.1-4.1,3.4-6.91,4.49-2.12.82-5.3,1.8-11.15,2.07-6.33.29-8.23.35-24.28.35s-17.94-.06-24.28-.35c-5.86-.27-9.04-1.25-11.15-2.07-2.8-1.09-4.81-2.39-6.91-4.49-2.1-2.1-3.4-4.1-4.49-6.91-.82-2.12-1.8-5.3-2.07-11.15-.29-6.33-.35-8.23-.35-24.28s.06-17.94.35-24.28c.27-5.86,1.25-9.04,2.07-11.15,1.09-2.8,2.39-4.81,4.49-6.91,2.1-2.1,4.1-3.4,6.91-4.49,2.12-.82,5.3-1.8,11.15-2.07,6.33-.29,8.23-.35,24.28-.35h0Zm0,18.4c-17.04,0-30.85,13.81-30.85,30.85s13.81,30.85,30.85,30.85,30.85-13.81,30.85-30.85-13.81-30.85-30.85-30.85h0Zm0,50.87c-11.06,0-20.03-8.97-20.03-20.03s8.97-20.03,20.03-20.03,20.03,8.97,20.03,20.03-8.97,20.03-20.03,20.03Zm39.28-52.09c0,3.98-3.23,7.21-7.21,7.21s-7.21-3.23-7.21-7.21,3.23-7.21,7.21-7.21,7.21,3.23,7.21,7.21Z"/>
  </g>
</svg>