<?xml version="1.0" encoding="UTF-8"?>
<svg id="Layer_2" data-name="Layer 2" xmlns="http://www.w3.org/2000/svg" xmlns:xlink="http://www.w3.org/1999/xlink" viewBox="0 0 536 389">
  <defs>
    <style>
      .cls-1, .cls-2, .cls-3, .cls-4 {
        fill: #fff;
      }

      .cls-2 {
        filter: url(#drop-shadow-1);
      }

      .cls-3 {
        filter: url(#drop-shadow-2);
      }

      .cls-4 {
        filter: url(#drop-shadow-3);
      }

      .cls-5 {
        fill: url(#radial-gradient);
      }
    </style>
    <filter id="drop-shadow-1" filterUnits="userSpaceOnUse">
      <feOffset dx="0" dy="5.83"/>
      <feGaussianBlur result="blur" stdDeviation="4.17"/>
      <feFlood flood-color="#000" flood-opacity=".49"/>
      <feComposite in2="blur" operator="in"/>
      <feComposite in="SourceGraphic"/>
    </filter>
    <filter id="drop-shadow-2" filterUnits="userSpaceOnUse">
      <feOffset dx="0" dy="5.83"/>
      <feGaussianBlur result="blur-2" stdDeviation="4.17"/>
      <feFlood flood-color="#000" flood-opacity=".49"/>
      <feComposite in2="blur-2" operator="in"/>
      <feComposite in="SourceGraphic"/>
    </filter>
    <filter id="drop-shadow-3" filterUnits="userSpaceOnUse">
      <feOffset dx="0" dy="5.83"/>
      <feGaussianBlur result="blur-3" stdDeviation="4.17"/>
      <feFlood flood-color="#000" flood-opacity=".49"/>
      <feComposite in2="blur-3" operator="in"/>
      <feComposite in="SourceGraphic"/>
    </filter>
    <radialGradient id="radial-gradient" cx="268.18" cy="193.75" fx="268.18" fy="193.75" r="417.36" gradientUnits="userSpaceOnUse">
      <stop offset="0" stop-color="#e7fdaf"/>
      <stop offset="1" stop-color="#6a7451"/>
      <stop offset="1" stop-color="#000"/>
    </radialGradient>
  </defs>
  <g id="Layer_1-2" data-name="Layer 1">
    <g id="Logo">
      <g id="Logo-2" data-name="Logo">
        <path class="cls-2" d="m162.4,278.96h69.03v-88.07l-69.03,88.07Zm0,0h69.03v-88.07l-69.03,88.07Zm261.08-133.26h-12.49l-24.61-9.6-11.71-7.18h0s0-.02,0-.02h0s-4.73-6.38-4.73-6.38l-.16-.14,27.63-17.8c-3.89-4.24-8.07-8.28-12.51-12.09l-25.19,21.18-.59-.51-.59.12-.68.13-5.53-9.02-19.87-13.64-12.73-11.91-9.28-10.21-6.96-14.35c-11.37-2.13-23.18-3.24-35.3-3.24-62.17,0-116.26,29.36-143.98,72.62-12.61,19.66-19.77,42.18-19.77,66.13,0,26.08,8.5,50.49,23.27,71.33.58.82,1.16,1.63,1.76,2.43l1.58-2.01,73.26-93.45,27.13,16.51v-18.31h37.04v112.67h125.17c23.9-24.12,38.29-55.22,38.29-89.17,0-15.42-2.97-30.24-8.45-44.09Zm-261.08,133.26h69.03v-88.07l-69.03,88.07Z"/>
        <path class="cls-3" d="m503.3,120l9.23-6.47-24.74-17.71-2.56-.55h0c-24.71-28.22-60.16-51.26-102.31-66.27-.92-.33-1.86-.66-2.79-.97l-15.56-13.19-32.12-7.96h-42.07l2.43,3.76c-8.1-.57-16.32-.84-24.62-.84C127.35,9.79,13.18,90.38,13.18,189.79c0,60.82,42.73,114.58,108.14,147.16.77.39,1.53.77,2.3,1.14,0,0,0,0,.02,0,41.08,19.98,90.87,31.69,144.54,31.69,48.41,0,93.67-9.52,132.22-26.06,3.17-1.36,6.28-2.76,9.35-4.22.79-.38,1.58-.75,2.36-1.13,67.07-32.43,111.07-86.88,111.07-148.59,0-24.75-7.07-48.33-19.88-69.79Zm-104.62,158.96c12.85,0,23.26,10.41,23.26,23.26v10.98c0,8.81-4.89,16.48-12.11,20.42-.74.41-1.52.77-2.31,1.1-2.38.97-4.94,1.57-7.63,1.71-.41.03-.81.03-1.22.03H134.36c-3.21,0-6.27-.65-9.06-1.83-.78-.33-1.54-.7-2.27-1.12-7.12-3.97-11.92-11.58-11.92-20.32v-10.98c0-12.85,10.41-23.26,23.26-23.26h28.04l69.03-88.07v-6.29l-27.13-16.51-73.26,93.45-1.58,2.01c-.6-.8-1.18-1.61-1.76-2.43-14.77-20.84-23.27-45.25-23.27-71.33,0-23.95,7.16-46.48,19.77-66.13,27.73-43.26,81.81-72.62,143.98-72.62,12.12,0,23.93,1.12,35.3,3.24l6.96,14.35,9.28,10.21,12.73,11.91,19.87,13.64,5.53,9.02.68-.13.59-.12.59.51,25.19-21.18c4.44,3.81,8.62,7.85,12.51,12.09l-27.63,17.8.16.14,4.73,6.38h0s0,.02,0,.02h0s11.71,7.19,11.71,7.19l24.61,9.6h12.49c5.48,13.85,8.45,28.68,8.45,44.09,0,33.95-14.39,65.05-38.29,89.17h5.03Z"/>
        <rect class="cls-4" x="231.43" y="166.29" width="37.04" height="112.67"/>
        <path class="cls-5" d="m421.93,302.22v10.98c0,8.81-4.89,16.48-12.11,20.42-.74.41-1.52.77-2.31,1.1-2.38.97-4.94,1.57-7.63,1.71-.41.03-.81.03-1.22.03H134.36c-3.21,0-6.27-.65-9.06-1.83-.78-.33-1.54-.7-2.27-1.12-7.12-3.97-11.92-11.58-11.92-20.32v-10.98c0-12.85,10.41-23.26,23.26-23.26h28.04l69.03-88.07v88.07h37.04v-112.67h-37.04v18.31l-27.13-16.51-73.26,93.45-1.58,2.01c-.6-.8-1.18-1.61-1.76-2.43-14.77-20.84-23.27-45.25-23.27-71.33,0-23.95,7.16-46.48,19.77-66.13,27.73-43.26,81.81-72.62,143.98-72.62,12.12,0,23.93,1.12,35.3,3.24l6.96,14.35,9.28,10.21,12.73,11.91,19.87,13.64,5.53,9.02.68-.13.59-.12.59.51,25.19-21.18c4.44,3.81,8.62,7.85,12.51,12.09l-27.63,17.8.16.14,4.73,6.38h0s0,.02,0,.02h0s11.71,7.19,11.71,7.19l24.61,9.6h12.49c5.48,13.85,8.45,28.68,8.45,44.09,0,33.95-14.39,65.05-38.29,89.17h5.03c12.85,0,23.26,10.41,23.26,23.26Z"/>
        <rect class="cls-1" x="280.31" y="166.29" width="37.04" height="112.67"/>
        <polygon class="cls-1" points="162.4 278.96 162.07 279.37 138.66 279.37 137.98 278.96 162.4 278.96"/>
        <polygon class="cls-1" points="381.35 137.92 381.35 148.55 359.11 122.52 311.7 122.52 322.85 120.32 357.84 113.41 358.52 113.27 359.11 113.16 359.71 113.67 369.77 122.37 369.93 122.52 374.66 128.89 374.66 128.9 374.67 128.91 374.67 128.92 381.35 137.92"/>
        <polygon class="cls-1" points="381.35 148.55 381.35 226.18 359.11 272.32 357.66 278.96 328.14 278.96 369.93 226.18 369.93 175.72 381.35 148.55"/>
        <path id="Path_13" data-name="Path 13" class="cls-1" d="m330.96,124.12l-73.52-34.51h-63.38l-61.9,34.51,77.66,26.51h74.77l46.37-26.51Z"/>
        <polygon class="cls-1" points="374.66 128.89 366.96 124.18 369.77 122.37 369.93 122.52 374.66 128.89"/>
        <polygon class="cls-1" points="359.71 113.67 358.58 114.62 357.84 113.41 358.52 113.27 359.11 113.16 359.71 113.67"/>
      </g>
    </g>
  </g>
</svg>