<?xml version="1.0" encoding="UTF-8"?>
<svg id="Layer_1" data-name="Layer 1" xmlns="http://www.w3.org/2000/svg" viewBox="0 0 324.5 83.5">
  <defs>
    <style>
      .cls-1 {
        fill: #e6e6e6;
      }

      .cls-2 {
        fill: #fcb521;
      }
    </style>
  </defs>
  <polygon class="cls-2" points="38.5 12.34 48.24 32.09 70.03 35.25 54.27 50.62 57.99 72.32 38.5 62.08 19.01 72.32 22.73 50.62 6.97 35.25 28.76 32.09 38.5 12.34"/>
  <polygon class="cls-2" points="101.5 12.34 111.24 32.09 133.03 35.25 117.27 50.62 120.99 72.32 101.5 62.08 82.01 72.32 85.73 50.62 69.97 35.25 91.76 32.09 101.5 12.34"/>
  <polygon class="cls-1" points="163.5 12.34 173.24 32.09 195.03 35.25 179.27 50.62 182.99 72.32 163.5 62.08 144.01 72.32 147.73 50.62 131.97 35.25 153.76 32.09 163.5 12.34"/>
  <polygon class="cls-1" points="226.5 12.34 236.24 32.09 258.03 35.25 242.27 50.62 245.99 72.32 226.5 62.08 207.01 72.32 210.73 50.62 194.97 35.25 216.76 32.09 226.5 12.34"/>
  <polygon class="cls-1" points="288.5 12.34 298.24 32.09 320.03 35.25 304.27 50.62 307.99 72.32 288.5 62.08 269.01 72.32 272.73 50.62 256.97 35.25 278.76 32.09 288.5 12.34"/>
</svg>