<?xml version="1.0" encoding="UTF-8"?>
<svg id="Layer_2" data-name="Layer 2" xmlns="http://www.w3.org/2000/svg" viewBox="0 0 195.46 195.46">
  <defs>
    <style>
      .cls-1 {
        fill: #a0b969;
      }
    </style>
  </defs>
  <g id="Layer_1-2" data-name="Layer 1">
    <path class="cls-1" d="m97.73,0C43.76,0,0,43.77,0,97.73s43.76,97.73,97.73,97.73,97.73-43.75,97.73-97.73S151.71,0,97.73,0Zm49.23,78.03c.05,1.06.07,2.12.07,3.19,0,32.55-24.77,70.08-70.08,70.08-13.91,0-26.86-4.08-37.76-11.06,1.93.23,3.89.34,5.87.34,11.54,0,22.16-3.94,30.59-10.54-10.78-.2-19.87-7.33-23-17.11,1.5.29,3.04.44,4.63.44,2.25,0,4.42-.29,6.49-.86-11.27-2.26-19.76-12.22-19.76-24.15,0-.11,0-.21,0-.32,3.32,1.85,7.12,2.95,11.16,3.08-6.61-4.43-10.96-11.95-10.96-20.5,0-4.51,1.21-8.75,3.33-12.38,12.15,14.9,30.3,24.71,50.77,25.73-.42-1.8-.64-3.68-.64-5.61,0-13.6,11.03-24.63,24.63-24.63,7.08,0,13.48,2.99,17.98,7.78,5.61-1.1,10.88-3.16,15.64-5.98-1.85,5.75-5.75,10.58-10.84,13.63,4.99-.6,9.74-1.92,14.15-3.88-3.29,4.95-7.47,9.29-12.29,12.76Z"/>
  </g>
</svg>