<?xml version="1.0" encoding="UTF-8"?>
<svg id="Layer_1" data-name="Layer 1" xmlns="http://www.w3.org/2000/svg" viewBox="0 0 415.15 399.04">
  <defs>
    <style>
      .cls-1 {
        fill: #e6e6e6;
      }

      .cls-2 {
        fill: #fff;
      }

      .cls-3 {
        fill: #ccc;
      }
    </style>
  </defs>
  <rect class="cls-1" x="40" y="32" width="342.54" height="335"/>
  <circle class="cls-2" cx="211.5" cy="199.26" r="163.97"/>
  <path d="m164.8,130.45c0,19.69,9.44,37.17,24.03,48.17-23.1-8.45-39.59-30.62-39.59-56.64,0-33.3,26.99-60.29,60.29-60.29,13.61,0,26.17,4.51,36.26,12.12-6.46-2.36-13.43-3.65-20.71-3.65-33.3,0-60.29,26.99-60.29,60.29Z"/>
  <path class="cls-2" d="m269.83,121.97c0,33.3-26.99,60.29-60.29,60.29-7.27,0-14.24-1.29-20.7-3.65-14.6-11-24.03-28.49-24.03-48.17,0-33.3,26.99-60.29,60.29-60.29,7.27,0,14.25,1.29,20.71,3.65,14.6,11.01,24.03,28.49,24.03,48.17Z"/>
  <path class="cls-3" d="m269.83,121.97c0,33.3-26.99,60.29-60.29,60.29-7.27,0-14.24-1.29-20.7-3.65-14.6-11-24.03-28.49-24.03-48.17,0-33.3,26.99-60.29,60.29-60.29,7.27,0,14.25,1.29,20.71,3.65,14.6,11.01,24.03,28.49,24.03,48.17Z"/>
  <path d="m90.4,292.47c0,27.46,26.32,51.79,66.76,66.73-62.98-11.15-108.2-41.75-108.2-77.76,0-45.43,72.02-82.27,160.87-82.27,35.14,0,67.65,5.76,94.11,15.54-16.5-2.92-34.22-4.51-52.67-4.51-88.84,0-160.87,36.83-160.87,82.27Z"/>
  <path class="cls-3" d="m370.69,281.44c0,45.43-72.03,82.27-160.87,82.27-18.45,0-36.17-1.59-52.67-4.51-40.44-14.94-66.76-39.26-66.76-66.73,0-45.43,72.03-82.27,160.87-82.27,18.45,0,36.17,1.59,52.67,4.51,40.44,14.94,66.76,39.26,66.76,66.73Z"/>
</svg>